<mxfile host="app.diagrams.net" agent="Mozilla/5.0 (Windows NT 10.0; Win64; x64; rv:135.0) Gecko/20100101 Firefox/135.0" version="26.3.0" pages="2">
  <diagram name="Page-1" id="A8mZAvQNBaOGT2f5-1j1">
    <mxGraphModel dx="1798" dy="568" grid="1" gridSize="10" guides="1" tooltips="1" connect="1" arrows="1" fold="1" page="1" pageScale="1" pageWidth="850" pageHeight="1100" math="0" shadow="0">
      <root>
        <mxCell id="0" />
        <mxCell id="1" parent="0" />
        <object label="&lt;b&gt;User&lt;/b&gt;" id="wqHerE7pvqFSdkicVR1H-1">
          <mxCell style="shape=umlActor;verticalLabelPosition=bottom;verticalAlign=top;html=1;outlineConnect=0;movable=1;resizable=1;rotatable=1;deletable=1;editable=1;locked=0;connectable=1;" parent="1" vertex="1">
            <mxGeometry x="150" y="380" width="30" height="60" as="geometry" />
          </mxCell>
        </object>
        <mxCell id="wqHerE7pvqFSdkicVR1H-3" value="&lt;font style=&quot;font-size: 11px;&quot;&gt;&lt;b&gt;&lt;i&gt;&lt;u&gt;OrderIngredientsScreen&amp;nbsp;&amp;nbsp;&lt;/u&gt;&lt;/i&gt;&lt;/b&gt;&lt;/font&gt;" style="shape=umlBoundary;whiteSpace=wrap;html=1;" parent="1" vertex="1">
          <mxGeometry x="345" y="240" width="160" height="80" as="geometry" />
        </mxCell>
        <mxCell id="wqHerE7pvqFSdkicVR1H-4" value="click to Order ingredients" style="text;html=1;align=center;verticalAlign=middle;whiteSpace=wrap;rounded=0;" parent="1" vertex="1">
          <mxGeometry x="190" y="320" width="60" height="30" as="geometry" />
        </mxCell>
        <mxCell id="wqHerE7pvqFSdkicVR1H-6" value="Get available&lt;br&gt;Producers" style="ellipse;shape=umlControl;whiteSpace=wrap;html=1;" parent="1" vertex="1">
          <mxGeometry x="602.5" y="160" width="120" height="80" as="geometry" />
        </mxCell>
        <mxCell id="wqHerE7pvqFSdkicVR1H-7" value="Get available&lt;br&gt;Ingredients" style="ellipse;shape=umlControl;whiteSpace=wrap;html=1;" parent="1" vertex="1">
          <mxGeometry x="630" y="270" width="125" height="80" as="geometry" />
        </mxCell>
        <mxCell id="wqHerE7pvqFSdkicVR1H-9" value="" style="endArrow=none;html=1;rounded=0;exitX=0.948;exitY=0.233;exitDx=0;exitDy=0;exitPerimeter=0;entryX=-0.014;entryY=0.513;entryDx=0;entryDy=0;entryPerimeter=0;" parent="1" source="wqHerE7pvqFSdkicVR1H-3" target="wqHerE7pvqFSdkicVR1H-6" edge="1">
          <mxGeometry width="50" height="50" relative="1" as="geometry">
            <mxPoint x="200" y="420" as="sourcePoint" />
            <mxPoint x="340" y="300" as="targetPoint" />
          </mxGeometry>
        </mxCell>
        <mxCell id="wqHerE7pvqFSdkicVR1H-11" value="Choosen&lt;br&gt;Producer&lt;div&gt;&lt;br/&gt;&lt;/div&gt;" style="ellipse;shape=umlEntity;whiteSpace=wrap;html=1;" parent="1" vertex="1">
          <mxGeometry x="860" y="210" width="80" height="80" as="geometry" />
        </mxCell>
        <mxCell id="wqHerE7pvqFSdkicVR1H-12" value="" style="endArrow=none;html=1;rounded=0;exitX=1;exitY=0.563;exitDx=0;exitDy=0;exitPerimeter=0;entryX=0;entryY=0.5;entryDx=0;entryDy=0;" parent="1" source="wqHerE7pvqFSdkicVR1H-6" target="wqHerE7pvqFSdkicVR1H-11" edge="1">
          <mxGeometry width="50" height="50" relative="1" as="geometry">
            <mxPoint x="730" y="340" as="sourcePoint" />
            <mxPoint x="835" y="390" as="targetPoint" />
          </mxGeometry>
        </mxCell>
        <mxCell id="wqHerE7pvqFSdkicVR1H-13" value="Choosen&lt;br&gt;Ingredients&lt;div&gt;&lt;br/&gt;&lt;/div&gt;" style="ellipse;shape=umlEntity;whiteSpace=wrap;html=1;" parent="1" vertex="1">
          <mxGeometry x="1040" y="400" width="80" height="80" as="geometry" />
        </mxCell>
        <mxCell id="wqHerE7pvqFSdkicVR1H-15" value="&lt;font style=&quot;font-size: 11px;&quot;&gt;FinishOrderScreen&amp;nbsp;&amp;nbsp;&lt;/font&gt;" style="shape=umlBoundary;whiteSpace=wrap;html=1;" parent="1" vertex="1">
          <mxGeometry x="576" y="780" width="160" height="80" as="geometry" />
        </mxCell>
        <mxCell id="wqHerE7pvqFSdkicVR1H-16" value="Confirmation of order" style="ellipse;shape=umlControl;whiteSpace=wrap;html=1;" parent="1" vertex="1">
          <mxGeometry x="330" y="600" width="130" height="80" as="geometry" />
        </mxCell>
        <mxCell id="wqHerE7pvqFSdkicVR1H-17" value="" style="endArrow=none;html=1;rounded=0;exitX=0.969;exitY=0.342;exitDx=0;exitDy=0;exitPerimeter=0;entryX=0.092;entryY=0.315;entryDx=0;entryDy=0;entryPerimeter=0;" parent="1" source="wqHerE7pvqFSdkicVR1H-3" target="wqHerE7pvqFSdkicVR1H-7" edge="1">
          <mxGeometry width="50" height="50" relative="1" as="geometry">
            <mxPoint x="470" y="329" as="sourcePoint" />
            <mxPoint x="619" y="477" as="targetPoint" />
          </mxGeometry>
        </mxCell>
        <mxCell id="wqHerE7pvqFSdkicVR1H-20" value="&amp;nbsp;Finish the&amp;nbsp; Order&amp;nbsp;" style="text;html=1;align=center;verticalAlign=middle;whiteSpace=wrap;rounded=0;" parent="1" vertex="1">
          <mxGeometry x="490" y="760" width="60" height="30" as="geometry" />
        </mxCell>
        <mxCell id="wqHerE7pvqFSdkicVR1H-26" style="edgeStyle=orthogonalEdgeStyle;rounded=0;orthogonalLoop=1;jettySize=auto;html=1;exitX=0.53;exitY=1.01;exitDx=0;exitDy=0;exitPerimeter=0;" parent="1" source="wqHerE7pvqFSdkicVR1H-3" target="wqHerE7pvqFSdkicVR1H-16" edge="1">
          <mxGeometry relative="1" as="geometry">
            <Array as="points">
              <mxPoint x="430" y="570" />
              <mxPoint x="430" y="570" />
            </Array>
          </mxGeometry>
        </mxCell>
        <mxCell id="wqHerE7pvqFSdkicVR1H-27" value="&lt;font style=&quot;font-size: 11px;&quot;&gt;&lt;b&gt;&lt;i&gt;&lt;u&gt;LogFishScreen&amp;nbsp;&amp;nbsp;&lt;/u&gt;&lt;/i&gt;&lt;/b&gt;&lt;/font&gt;" style="shape=umlBoundary;whiteSpace=wrap;html=1;" parent="1" vertex="1">
          <mxGeometry x="200" y="970" width="160" height="80" as="geometry" />
        </mxCell>
        <mxCell id="wqHerE7pvqFSdkicVR1H-29" value="click to Logs Fish" style="text;html=1;align=center;verticalAlign=middle;whiteSpace=wrap;rounded=0;" parent="1" vertex="1">
          <mxGeometry x="130" y="695" width="50" height="30" as="geometry" />
        </mxCell>
        <mxCell id="wqHerE7pvqFSdkicVR1H-30" value="Shows available&lt;br&gt;Fish" style="ellipse;shape=umlControl;whiteSpace=wrap;html=1;" parent="1" vertex="1">
          <mxGeometry x="930" y="1140" width="120" height="80" as="geometry" />
        </mxCell>
        <mxCell id="wqHerE7pvqFSdkicVR1H-31" value="Gets the &lt;br&gt;CurentDate" style="ellipse;shape=umlControl;whiteSpace=wrap;html=1;" parent="1" vertex="1">
          <mxGeometry x="803.5" y="1180" width="120" height="80" as="geometry" />
        </mxCell>
        <mxCell id="wqHerE7pvqFSdkicVR1H-37" value="Gets quantity" style="ellipse;shape=umlControl;whiteSpace=wrap;html=1;" parent="1" vertex="1">
          <mxGeometry x="1130" y="1110" width="110" height="80" as="geometry" />
        </mxCell>
        <mxCell id="wqHerE7pvqFSdkicVR1H-42" value="" style="endArrow=none;html=1;rounded=0;entryX=0;entryY=0.5;entryDx=0;entryDy=0;entryPerimeter=0;exitX=0.991;exitY=0.367;exitDx=0;exitDy=0;exitPerimeter=0;" parent="1" source="QgnoMtRoOUnIMVqyHwb5-10" target="wqHerE7pvqFSdkicVR1H-30" edge="1">
          <mxGeometry width="50" height="50" relative="1" as="geometry">
            <mxPoint x="594.0500000000002" y="1161.9999999999998" as="sourcePoint" />
            <mxPoint x="590" y="1010" as="targetPoint" />
          </mxGeometry>
        </mxCell>
        <mxCell id="wqHerE7pvqFSdkicVR1H-43" value="Shows available&lt;br&gt;Types of Fish" style="ellipse;shape=umlControl;whiteSpace=wrap;html=1;" parent="1" vertex="1">
          <mxGeometry x="628.5" y="1240" width="115" height="80" as="geometry" />
        </mxCell>
        <mxCell id="wqHerE7pvqFSdkicVR1H-52" value="" style="endArrow=none;html=1;rounded=0;entryX=0.658;entryY=0.097;entryDx=0;entryDy=0;entryPerimeter=0;exitX=0.691;exitY=0.949;exitDx=0;exitDy=0;exitPerimeter=0;" parent="1" source="QgnoMtRoOUnIMVqyHwb5-10" target="wqHerE7pvqFSdkicVR1H-43" edge="1">
          <mxGeometry width="50" height="50" relative="1" as="geometry">
            <mxPoint x="559.9499999999998" y="1197.04" as="sourcePoint" />
            <mxPoint x="600" y="1310" as="targetPoint" />
          </mxGeometry>
        </mxCell>
        <mxCell id="wqHerE7pvqFSdkicVR1H-55" value="&lt;font style=&quot;font-size: 11px;&quot;&gt;FinishLogScreen&amp;nbsp;&amp;nbsp;&lt;/font&gt;" style="shape=umlBoundary;whiteSpace=wrap;html=1;" parent="1" vertex="1">
          <mxGeometry x="512.5" y="1680" width="160" height="80" as="geometry" />
        </mxCell>
        <mxCell id="QgnoMtRoOUnIMVqyHwb5-13" style="edgeStyle=orthogonalEdgeStyle;rounded=0;orthogonalLoop=1;jettySize=auto;html=1;" parent="1" source="wqHerE7pvqFSdkicVR1H-57" target="wqHerE7pvqFSdkicVR1H-27" edge="1">
          <mxGeometry relative="1" as="geometry" />
        </mxCell>
        <mxCell id="wqHerE7pvqFSdkicVR1H-57" value="&lt;span style=&quot;text-wrap-mode: nowrap; color: rgba(0, 0, 0, 0); font-family: monospace; font-size: 0px; text-align: start;&quot;&gt;%3CmxGraphModel%3E%3Croot%3E%3CmxCell%20id%3D%220%22%2F%3E%3CmxCell%20id%3D%221%22%20parent%3D%220%22%2F%3E%3CmxCell%20id%3D%222%22%20value%3D%22Name%20of%20Caught%20Fish%22%20style%3D%22ellipse%3Bshape%3DumlEntity%3BwhiteSpace%3Dwrap%3Bhtml%3D1%3B%22%20vertex%3D%221%22%20parent%3D%221%22%3E%3CmxGeometry%20x%3D%22946%22%20y%3D%221100%22%20width%3D%2280%22%20height%3D%2280%22%20as%3D%22geometry%22%2F%3E%3C%2FmxCell%3E%3C%2Froot%3E%3C%2FmxGraphModel%3E&lt;/span&gt;&lt;span style=&quot;text-wrap-mode: nowrap; color: rgba(0, 0, 0, 0); font-family: monospace; font-size: 0px; text-align: start;&quot;&gt;%3CmxGraphModel%3E%3Croot%3E%3CmxCell%20id%3D%220%22%2F%3E%3CmxCell%20id%3D%221%22%20parent%3D%220%22%2F%3E%3CmxCell%20id%3D%222%22%20value%3D%22Name%20of%20Caught%20Fish%22%20style%3D%22ellipse%3Bshape%3DumlEntity%3BwhiteSpace%3Dwrap%3Bhtml%3D1%3B%22%20vertex%3D%221%22%20parent%3D%221%22%3E%3CmxGeometry%20x%3D%22946%22%20y%3D%221100%22%20width%3D%2280%22%20height%3D%2280%22%20as%3D%22geometry%22%2F%3E%3C%2FmxCell%3E%3C%2Froot%3E%3C%2FmxGraphModel%3E&lt;/span&gt;&lt;span style=&quot;text-wrap-mode: nowrap; color: rgba(0, 0, 0, 0); font-family: monospace; font-size: 0px; text-align: start;&quot;&gt;%3CmxGraphModel%3E%3Croot%3E%3CmxCell%20id%3D%220%22%2F%3E%3CmxCell%20id%3D%221%22%20parent%3D%220%22%2F%3E%3CmxCell%20id%3D%222%22%20value%3D%22Name%20of%20Caught%20Fish%22%20style%3D%22ellipse%3Bshape%3DumlEntity%3BwhiteSpace%3Dwrap%3Bhtml%3D1%3B%22%20vertex%3D%221%22%20parent%3D%221%22%3E%3CmxGeometry%20x%3D%22946%22%20y%3D%221100%22%20width%3D%2280%22%20height%3D%2280%22%20as%3D%22geometry%22%2F%3E%3C%2FmxCell%3E%3C%2Froot%3E%3C%2FmxGraphModel%3E&lt;/span&gt;FishingReport&lt;div&gt;&lt;br/&gt;&lt;/div&gt;" style="ellipse;shape=umlEntity;whiteSpace=wrap;html=1;" parent="1" vertex="1">
          <mxGeometry x="370" y="1570" width="80" height="80" as="geometry" />
        </mxCell>
        <mxCell id="wqHerE7pvqFSdkicVR1H-58" value="" style="endArrow=none;html=1;rounded=0;exitX=0.006;exitY=0.436;exitDx=0;exitDy=0;exitPerimeter=0;entryX=0.762;entryY=1.032;entryDx=0;entryDy=0;entryPerimeter=0;" parent="1" source="wqHerE7pvqFSdkicVR1H-55" target="wqHerE7pvqFSdkicVR1H-57" edge="1">
          <mxGeometry width="50" height="50" relative="1" as="geometry">
            <mxPoint x="472.5" y="1690" as="sourcePoint" />
            <mxPoint x="567.5" y="1699" as="targetPoint" />
          </mxGeometry>
        </mxCell>
        <mxCell id="wqHerE7pvqFSdkicVR1H-59" style="edgeStyle=orthogonalEdgeStyle;rounded=0;orthogonalLoop=1;jettySize=auto;html=1;entryX=0.621;entryY=0.058;entryDx=0;entryDy=0;entryPerimeter=0;exitX=0.454;exitY=1.038;exitDx=0;exitDy=0;exitPerimeter=0;" parent="1" source="wqHerE7pvqFSdkicVR1H-62" target="wqHerE7pvqFSdkicVR1H-55" edge="1">
          <mxGeometry relative="1" as="geometry">
            <mxPoint x="306" y="1560" as="sourcePoint" />
            <mxPoint x="626" y="1670" as="targetPoint" />
            <Array as="points">
              <mxPoint x="665" y="1453" />
              <mxPoint x="665" y="1565" />
              <mxPoint x="612" y="1565" />
            </Array>
          </mxGeometry>
        </mxCell>
        <mxCell id="wqHerE7pvqFSdkicVR1H-62" value="Finish loging Fish?" style="ellipse;shape=umlControl;whiteSpace=wrap;html=1;" parent="1" vertex="1">
          <mxGeometry x="600" y="1370" width="130" height="80" as="geometry" />
        </mxCell>
        <mxCell id="wqHerE7pvqFSdkicVR1H-64" value="Fish weight&amp;nbsp; illegal?" style="ellipse;shape=umlControl;whiteSpace=wrap;html=1;" parent="1" vertex="1">
          <mxGeometry x="60" y="1575" width="130" height="80" as="geometry" />
        </mxCell>
        <mxCell id="wqHerE7pvqFSdkicVR1H-65" value="Weight of Fish" style="ellipse;shape=umlEntity;whiteSpace=wrap;html=1;" parent="1" vertex="1">
          <mxGeometry x="220" y="1690" width="80" height="80" as="geometry" />
        </mxCell>
        <mxCell id="wqHerE7pvqFSdkicVR1H-66" value="" style="endArrow=none;html=1;rounded=0;entryX=0.038;entryY=0.313;entryDx=0;entryDy=0;entryPerimeter=0;exitX=0.808;exitY=0.97;exitDx=0;exitDy=0;exitPerimeter=0;" parent="1" source="wqHerE7pvqFSdkicVR1H-64" target="wqHerE7pvqFSdkicVR1H-65" edge="1">
          <mxGeometry width="50" height="50" relative="1" as="geometry">
            <mxPoint x="120" y="1335" as="sourcePoint" />
            <mxPoint x="252.5" y="1295" as="targetPoint" />
          </mxGeometry>
        </mxCell>
        <mxCell id="wqHerE7pvqFSdkicVR1H-68" value="" style="endArrow=none;html=1;rounded=0;exitX=0.362;exitY=0.942;exitDx=0;exitDy=0;exitPerimeter=0;entryX=0.402;entryY=0.113;entryDx=0;entryDy=0;entryPerimeter=0;" parent="1" source="wqHerE7pvqFSdkicVR1H-27" target="wqHerE7pvqFSdkicVR1H-64" edge="1">
          <mxGeometry width="50" height="50" relative="1" as="geometry">
            <mxPoint x="390" y="865" as="sourcePoint" />
            <mxPoint x="556" y="1300" as="targetPoint" />
          </mxGeometry>
        </mxCell>
        <mxCell id="wqHerE7pvqFSdkicVR1H-77" value="" style="endArrow=block;dashed=1;endFill=0;endSize=12;html=1;rounded=0;entryX=-0.003;entryY=0.606;entryDx=0;entryDy=0;entryPerimeter=0;" parent="1" target="wqHerE7pvqFSdkicVR1H-3" edge="1">
          <mxGeometry width="160" relative="1" as="geometry">
            <mxPoint x="185" y="400" as="sourcePoint" />
            <mxPoint x="345" y="400" as="targetPoint" />
          </mxGeometry>
        </mxCell>
        <mxCell id="wqHerE7pvqFSdkicVR1H-80" value="" style="endArrow=block;dashed=1;endFill=0;endSize=12;html=1;rounded=0;entryX=-0.007;entryY=0.283;entryDx=0;entryDy=0;entryPerimeter=0;" parent="1" source="wqHerE7pvqFSdkicVR1H-1" target="wqHerE7pvqFSdkicVR1H-27" edge="1">
          <mxGeometry width="160" relative="1" as="geometry">
            <mxPoint x="205" y="420" as="sourcePoint" />
            <mxPoint x="365" y="308" as="targetPoint" />
          </mxGeometry>
        </mxCell>
        <mxCell id="nakGgd-UH3Y--avyIcae-2" value="&lt;div style=&quot;text-align: center;&quot;&gt;&lt;span style=&quot;background-color: transparent; color: light-dark(rgb(0, 0, 0), rgb(255, 255, 255));&quot;&gt;choose&lt;br&gt;Producer&lt;/span&gt;&lt;/div&gt;" style="text;whiteSpace=wrap;html=1;" parent="1" vertex="1">
          <mxGeometry x="542.5" y="180" width="60" height="40" as="geometry" />
        </mxCell>
        <mxCell id="nakGgd-UH3Y--avyIcae-3" value="&lt;div style=&quot;text-align: center;&quot;&gt;&lt;span style=&quot;background-color: transparent; color: light-dark(rgb(0, 0, 0), rgb(255, 255, 255));&quot;&gt;choose&amp;nbsp;&lt;br&gt;Ingredients&lt;/span&gt;&lt;/div&gt;" style="text;whiteSpace=wrap;html=1;" parent="1" vertex="1">
          <mxGeometry x="571" y="280" width="77.5" height="40" as="geometry" />
        </mxCell>
        <mxCell id="nakGgd-UH3Y--avyIcae-4" value="Add more &lt;br&gt;Ingredients?" style="ellipse;shape=umlControl;whiteSpace=wrap;html=1;" parent="1" vertex="1">
          <mxGeometry x="831" y="345" width="130" height="80" as="geometry" />
        </mxCell>
        <mxCell id="nakGgd-UH3Y--avyIcae-5" value="" style="endArrow=none;html=1;rounded=0;exitX=1.003;exitY=0.533;exitDx=0;exitDy=0;exitPerimeter=0;entryX=0.3;entryY=0.125;entryDx=0;entryDy=0;entryPerimeter=0;" parent="1" source="wqHerE7pvqFSdkicVR1H-7" target="nakGgd-UH3Y--avyIcae-4" edge="1">
          <mxGeometry width="50" height="50" relative="1" as="geometry">
            <mxPoint x="714.9900000000002" y="540.0000000000001" as="sourcePoint" />
            <mxPoint x="830" y="579" as="targetPoint" />
          </mxGeometry>
        </mxCell>
        <mxCell id="nakGgd-UH3Y--avyIcae-7" style="edgeStyle=orthogonalEdgeStyle;rounded=0;orthogonalLoop=1;jettySize=auto;html=1;entryX=0;entryY=0.5;entryDx=0;entryDy=0;" parent="1" source="nakGgd-UH3Y--avyIcae-4" target="wqHerE7pvqFSdkicVR1H-13" edge="1">
          <mxGeometry relative="1" as="geometry" />
        </mxCell>
        <mxCell id="nakGgd-UH3Y--avyIcae-8" value="&lt;div style=&quot;text-align: center;&quot;&gt;&lt;span style=&quot;background-color: transparent; color: light-dark(rgb(0, 0, 0), rgb(255, 255, 255));&quot;&gt;NO&lt;/span&gt;&lt;/div&gt;" style="text;whiteSpace=wrap;html=1;" parent="1" vertex="1">
          <mxGeometry x="1010" y="370" width="40" height="30" as="geometry" />
        </mxCell>
        <mxCell id="nakGgd-UH3Y--avyIcae-9" style="edgeStyle=orthogonalEdgeStyle;rounded=0;orthogonalLoop=1;jettySize=auto;html=1;entryX=0.969;entryY=0.708;entryDx=0;entryDy=0;entryPerimeter=0;exitX=0.013;exitY=0.612;exitDx=0;exitDy=0;exitPerimeter=0;" parent="1" source="nakGgd-UH3Y--avyIcae-4" edge="1">
          <mxGeometry relative="1" as="geometry">
            <mxPoint x="849" y="420" as="sourcePoint" />
            <mxPoint x="509.53999999999996" y="290" as="targetPoint" />
            <Array as="points">
              <mxPoint x="833" y="400" />
              <mxPoint x="550" y="400" />
              <mxPoint x="550" y="290" />
            </Array>
          </mxGeometry>
        </mxCell>
        <mxCell id="nakGgd-UH3Y--avyIcae-18" style="edgeStyle=orthogonalEdgeStyle;rounded=0;orthogonalLoop=1;jettySize=auto;html=1;strokeColor=#FF0000;" parent="1" source="nakGgd-UH3Y--avyIcae-11" target="nakGgd-UH3Y--avyIcae-13" edge="1">
          <mxGeometry relative="1" as="geometry">
            <Array as="points">
              <mxPoint x="730" y="685" />
            </Array>
          </mxGeometry>
        </mxCell>
        <mxCell id="nakGgd-UH3Y--avyIcae-11" value="Cancel Order?" style="ellipse;shape=umlControl;whiteSpace=wrap;html=1;fillColor=#FF0000;" parent="1" vertex="1">
          <mxGeometry x="483.5" y="645" width="130" height="80" as="geometry" />
        </mxCell>
        <mxCell id="nakGgd-UH3Y--avyIcae-12" value="" style="endArrow=none;html=1;rounded=0;exitX=0.64;exitY=1.02;exitDx=0;exitDy=0;exitPerimeter=0;entryX=0.031;entryY=0.375;entryDx=0;entryDy=0;entryPerimeter=0;strokeColor=#FF0000;" parent="1" source="wqHerE7pvqFSdkicVR1H-3" target="nakGgd-UH3Y--avyIcae-11" edge="1">
          <mxGeometry width="50" height="50" relative="1" as="geometry">
            <mxPoint x="429.5" y="493" as="sourcePoint" />
            <mxPoint x="540.5" y="570" as="targetPoint" />
          </mxGeometry>
        </mxCell>
        <mxCell id="nakGgd-UH3Y--avyIcae-13" value="Order Canceled&amp;nbsp;&lt;br&gt;Successfully" style="ellipse;shape=umlControl;whiteSpace=wrap;html=1;fillColor=#FF0000;" parent="1" vertex="1">
          <mxGeometry x="672.5" y="440" width="115" height="80" as="geometry" />
        </mxCell>
        <mxCell id="nakGgd-UH3Y--avyIcae-17" style="edgeStyle=orthogonalEdgeStyle;rounded=0;orthogonalLoop=1;jettySize=auto;html=1;entryX=0.906;entryY=0.875;entryDx=0;entryDy=0;entryPerimeter=0;strokeColor=#FF0000;" parent="1" source="nakGgd-UH3Y--avyIcae-13" target="wqHerE7pvqFSdkicVR1H-3" edge="1">
          <mxGeometry relative="1" as="geometry">
            <Array as="points">
              <mxPoint x="540" y="480" />
              <mxPoint x="540" y="310" />
            </Array>
          </mxGeometry>
        </mxCell>
        <mxCell id="nakGgd-UH3Y--avyIcae-19" value="&lt;div style=&quot;text-align: center;&quot;&gt;&lt;span style=&quot;background-color: transparent; color: light-dark(rgb(0, 0, 0), rgb(255, 255, 255));&quot;&gt;YES&lt;/span&gt;&lt;/div&gt;" style="text;whiteSpace=wrap;html=1;" parent="1" vertex="1">
          <mxGeometry x="748.5" y="614" width="50" height="26" as="geometry" />
        </mxCell>
        <mxCell id="nakGgd-UH3Y--avyIcae-20" value="&lt;div style=&quot;text-align: center;&quot;&gt;&lt;span style=&quot;background-color: transparent; color: light-dark(rgb(0, 0, 0), rgb(255, 255, 255));&quot;&gt;Redirect&lt;/span&gt;&lt;/div&gt;" style="text;whiteSpace=wrap;html=1;" parent="1" vertex="1">
          <mxGeometry x="560" y="450" width="50" height="40" as="geometry" />
        </mxCell>
        <mxCell id="nakGgd-UH3Y--avyIcae-21" style="edgeStyle=orthogonalEdgeStyle;rounded=0;orthogonalLoop=1;jettySize=auto;html=1;entryX=0.752;entryY=1.017;entryDx=0;entryDy=0;entryPerimeter=0;strokeColor=#FF0000;exitX=0.465;exitY=0.057;exitDx=0;exitDy=0;exitPerimeter=0;" parent="1" source="nakGgd-UH3Y--avyIcae-11" target="wqHerE7pvqFSdkicVR1H-3" edge="1">
          <mxGeometry relative="1" as="geometry">
            <Array as="points">
              <mxPoint x="520" y="650" />
              <mxPoint x="520" y="500" />
              <mxPoint x="500" y="500" />
              <mxPoint x="500" y="321" />
            </Array>
          </mxGeometry>
        </mxCell>
        <mxCell id="nakGgd-UH3Y--avyIcae-22" value="&lt;div style=&quot;text-align: center;&quot;&gt;&lt;span style=&quot;background-color: transparent; color: light-dark(rgb(0, 0, 0), rgb(255, 255, 255));&quot;&gt;N0/Redirect&lt;/span&gt;&lt;/div&gt;" style="text;whiteSpace=wrap;html=1;" parent="1" vertex="1">
          <mxGeometry x="530" y="574" width="70" height="40" as="geometry" />
        </mxCell>
        <mxCell id="nakGgd-UH3Y--avyIcae-23" style="edgeStyle=orthogonalEdgeStyle;rounded=0;orthogonalLoop=1;jettySize=auto;html=1;exitX=0.764;exitY=0.995;exitDx=0;exitDy=0;exitPerimeter=0;" parent="1" source="wqHerE7pvqFSdkicVR1H-27" target="wqHerE7pvqFSdkicVR1H-62" edge="1">
          <mxGeometry relative="1" as="geometry">
            <mxPoint x="290.0000000000002" y="1020.0000000000002" as="sourcePoint" />
            <Array as="points">
              <mxPoint x="350" y="1050" />
              <mxPoint x="350" y="1330" />
              <mxPoint x="604" y="1330" />
            </Array>
            <mxPoint x="599.7800383979322" y="1453.9565217391305" as="targetPoint" />
          </mxGeometry>
        </mxCell>
        <mxCell id="nakGgd-UH3Y--avyIcae-26" style="edgeStyle=orthogonalEdgeStyle;rounded=0;orthogonalLoop=1;jettySize=auto;html=1;strokeColor=#FF0000;entryX=0.612;entryY=0.995;entryDx=0;entryDy=0;entryPerimeter=0;" parent="1" source="wqHerE7pvqFSdkicVR1H-62" target="wqHerE7pvqFSdkicVR1H-27" edge="1">
          <mxGeometry relative="1" as="geometry">
            <mxPoint x="300" y="1060" as="targetPoint" />
            <Array as="points">
              <mxPoint x="330" y="1410" />
              <mxPoint x="330" y="1060" />
              <mxPoint x="298" y="1060" />
            </Array>
            <mxPoint x="595.0200383979322" y="1399.9565217391305" as="sourcePoint" />
          </mxGeometry>
        </mxCell>
        <mxCell id="nakGgd-UH3Y--avyIcae-27" value="Error message:&lt;br&gt;FIsh is illegal to catch" style="ellipse;shape=umlControl;whiteSpace=wrap;html=1;fillColor=#FF0000;" parent="1" vertex="1">
          <mxGeometry x="-60" y="1410" width="130" height="80" as="geometry" />
        </mxCell>
        <mxCell id="nakGgd-UH3Y--avyIcae-29" value="&lt;div style=&quot;text-align: center;&quot;&gt;&lt;span style=&quot;background-color: transparent; color: light-dark(rgb(0, 0, 0), rgb(255, 255, 255));&quot;&gt;NO&lt;/span&gt;&lt;/div&gt;" style="text;whiteSpace=wrap;html=1;" parent="1" vertex="1">
          <mxGeometry x="147.5" y="1690" width="35" height="30" as="geometry" />
        </mxCell>
        <mxCell id="nakGgd-UH3Y--avyIcae-30" style="edgeStyle=orthogonalEdgeStyle;rounded=0;orthogonalLoop=1;jettySize=auto;html=1;entryX=0;entryY=0.75;entryDx=0;entryDy=0;entryPerimeter=0;strokeColor=#FF0000;" parent="1" source="nakGgd-UH3Y--avyIcae-27" target="wqHerE7pvqFSdkicVR1H-27" edge="1">
          <mxGeometry relative="1" as="geometry" />
        </mxCell>
        <mxCell id="nakGgd-UH3Y--avyIcae-31" style="edgeStyle=orthogonalEdgeStyle;rounded=0;orthogonalLoop=1;jettySize=auto;html=1;entryX=0.451;entryY=1.05;entryDx=0;entryDy=0;entryPerimeter=0;strokeColor=#FF0000;" parent="1" source="wqHerE7pvqFSdkicVR1H-64" target="nakGgd-UH3Y--avyIcae-27" edge="1">
          <mxGeometry relative="1" as="geometry">
            <Array as="points">
              <mxPoint y="1615" />
              <mxPoint y="1533" />
              <mxPoint x="-1" y="1533" />
            </Array>
          </mxGeometry>
        </mxCell>
        <mxCell id="nakGgd-UH3Y--avyIcae-34" value="&lt;div style=&quot;text-align: center;&quot;&gt;YES&lt;/div&gt;" style="text;whiteSpace=wrap;html=1;" parent="1" vertex="1">
          <mxGeometry x="-40" y="1570" width="50" height="30" as="geometry" />
        </mxCell>
        <mxCell id="nakGgd-UH3Y--avyIcae-35" value="&lt;div style=&quot;text-align: center;&quot;&gt;Redirect&lt;/div&gt;" style="text;whiteSpace=wrap;html=1;" parent="1" vertex="1">
          <mxGeometry x="70" y="1355" width="50" height="25" as="geometry" />
        </mxCell>
        <mxCell id="nakGgd-UH3Y--avyIcae-36" value="&lt;div style=&quot;text-align: center;&quot;&gt;No/Redirect&lt;/div&gt;" style="text;whiteSpace=wrap;html=1;" parent="1" vertex="1">
          <mxGeometry x="472.5" y="1380" width="70" height="30" as="geometry" />
        </mxCell>
        <mxCell id="nakGgd-UH3Y--avyIcae-37" value="&lt;div style=&quot;text-align: center;&quot;&gt;YES&lt;/div&gt;" style="text;whiteSpace=wrap;html=1;" parent="1" vertex="1">
          <mxGeometry x="680.5" y="1510" width="35" height="30" as="geometry" />
        </mxCell>
        <mxCell id="nakGgd-UH3Y--avyIcae-39" value="&lt;div style=&quot;text-align: center;&quot;&gt;YES&lt;/div&gt;" style="text;whiteSpace=wrap;html=1;" parent="1" vertex="1">
          <mxGeometry x="743.5" y="410" width="60" height="30" as="geometry" />
        </mxCell>
        <mxCell id="Snrap14pgI5QlxNx9M2B-5" style="edgeStyle=orthogonalEdgeStyle;rounded=0;orthogonalLoop=1;jettySize=auto;html=1;entryX=-0.009;entryY=0.54;entryDx=0;entryDy=0;entryPerimeter=0;" parent="1" source="wqHerE7pvqFSdkicVR1H-16" target="wqHerE7pvqFSdkicVR1H-15" edge="1">
          <mxGeometry relative="1" as="geometry">
            <Array as="points">
              <mxPoint x="450" y="823" />
            </Array>
          </mxGeometry>
        </mxCell>
        <mxCell id="Snrap14pgI5QlxNx9M2B-7" value="&lt;div style=&quot;text-align: center;&quot;&gt;&lt;span style=&quot;background-color: transparent; color: light-dark(rgb(0, 0, 0), rgb(255, 255, 255));&quot;&gt;Redirect&lt;/span&gt;&lt;/div&gt;" style="text;whiteSpace=wrap;html=1;" parent="1" vertex="1">
          <mxGeometry x="290" y="1480" width="70" height="30" as="geometry" />
        </mxCell>
        <mxCell id="QgnoMtRoOUnIMVqyHwb5-4" value="Show&amp;nbsp;" style="ellipse;shape=umlControl;whiteSpace=wrap;html=1;" parent="1" vertex="1">
          <mxGeometry x="505" y="990" width="110" height="80" as="geometry" />
        </mxCell>
        <mxCell id="QgnoMtRoOUnIMVqyHwb5-6" value="" style="endArrow=none;html=1;rounded=0;entryX=0.009;entryY=0.569;entryDx=0;entryDy=0;entryPerimeter=0;exitX=0.842;exitY=0.089;exitDx=0;exitDy=0;exitPerimeter=0;" parent="1" source="QgnoMtRoOUnIMVqyHwb5-10" target="wqHerE7pvqFSdkicVR1H-37" edge="1">
          <mxGeometry width="50" height="50" relative="1" as="geometry">
            <mxPoint x="580" y="1140" as="sourcePoint" />
            <mxPoint x="736" y="1070" as="targetPoint" />
          </mxGeometry>
        </mxCell>
        <mxCell id="QgnoMtRoOUnIMVqyHwb5-7" value="" style="endArrow=none;html=1;rounded=0;entryX=0.014;entryY=0.394;entryDx=0;entryDy=0;entryPerimeter=0;exitX=1;exitY=0.625;exitDx=0;exitDy=0;exitPerimeter=0;" parent="1" source="wqHerE7pvqFSdkicVR1H-27" target="QgnoMtRoOUnIMVqyHwb5-4" edge="1">
          <mxGeometry width="50" height="50" relative="1" as="geometry">
            <mxPoint x="490" y="1120" as="sourcePoint" />
            <mxPoint x="742" y="1270" as="targetPoint" />
          </mxGeometry>
        </mxCell>
        <mxCell id="QgnoMtRoOUnIMVqyHwb5-8" value="" style="endArrow=none;html=1;rounded=0;entryX=0.01;entryY=0.474;entryDx=0;entryDy=0;entryPerimeter=0;exitX=0.995;exitY=0.667;exitDx=0;exitDy=0;exitPerimeter=0;" parent="1" source="QgnoMtRoOUnIMVqyHwb5-10" target="wqHerE7pvqFSdkicVR1H-31" edge="1">
          <mxGeometry width="50" height="50" relative="1" as="geometry">
            <mxPoint x="585.4700000000003" y="1183.0399999999997" as="sourcePoint" />
            <mxPoint x="736" y="1260" as="targetPoint" />
          </mxGeometry>
        </mxCell>
        <mxCell id="QgnoMtRoOUnIMVqyHwb5-9" value="" style="endArrow=none;html=1;rounded=0;exitX=0.564;exitY=1.037;exitDx=0;exitDy=0;exitPerimeter=0;entryX=0.029;entryY=0.317;entryDx=0;entryDy=0;entryPerimeter=0;" parent="1" source="QgnoMtRoOUnIMVqyHwb5-4" target="QgnoMtRoOUnIMVqyHwb5-10" edge="1">
          <mxGeometry width="50" height="50" relative="1" as="geometry">
            <mxPoint x="605" y="1108" as="sourcePoint" />
            <mxPoint x="501.98" y="1137.04" as="targetPoint" />
          </mxGeometry>
        </mxCell>
        <mxCell id="QgnoMtRoOUnIMVqyHwb5-10" value="Option Screen" style="shape=umlBoundary;whiteSpace=wrap;html=1;" parent="1" vertex="1">
          <mxGeometry x="630" y="1100" width="136" height="80" as="geometry" />
        </mxCell>
        <mxCell id="QgnoMtRoOUnIMVqyHwb5-14" value="" style="endArrow=none;html=1;rounded=0;exitX=0.587;exitY=1.012;exitDx=0;exitDy=0;exitPerimeter=0;entryX=0.721;entryY=0.195;entryDx=0;entryDy=0;entryPerimeter=0;" parent="1" source="wqHerE7pvqFSdkicVR1H-43" target="wqHerE7pvqFSdkicVR1H-62" edge="1">
          <mxGeometry width="50" height="50" relative="1" as="geometry">
            <mxPoint x="776.5" y="1355" as="sourcePoint" />
            <mxPoint x="817.5" y="1461" as="targetPoint" />
          </mxGeometry>
        </mxCell>
        <mxCell id="QgnoMtRoOUnIMVqyHwb5-15" value="" style="endArrow=none;html=1;rounded=0;entryX=0.909;entryY=0.374;entryDx=0;entryDy=0;entryPerimeter=0;exitX=0.267;exitY=0.982;exitDx=0;exitDy=0;exitPerimeter=0;" parent="1" source="wqHerE7pvqFSdkicVR1H-31" target="wqHerE7pvqFSdkicVR1H-62" edge="1">
          <mxGeometry width="50" height="50" relative="1" as="geometry">
            <mxPoint x="890" y="1300" as="sourcePoint" />
            <mxPoint x="798" y="1303" as="targetPoint" />
          </mxGeometry>
        </mxCell>
        <mxCell id="QgnoMtRoOUnIMVqyHwb5-16" value="" style="endArrow=none;html=1;rounded=0;entryX=0.967;entryY=0.468;entryDx=0;entryDy=0;entryPerimeter=0;exitX=0.32;exitY=1.018;exitDx=0;exitDy=0;exitPerimeter=0;" parent="1" source="wqHerE7pvqFSdkicVR1H-30" target="wqHerE7pvqFSdkicVR1H-62" edge="1">
          <mxGeometry width="50" height="50" relative="1" as="geometry">
            <mxPoint x="1000" y="1240" as="sourcePoint" />
            <mxPoint x="808" y="1313" as="targetPoint" />
          </mxGeometry>
        </mxCell>
        <mxCell id="QgnoMtRoOUnIMVqyHwb5-17" value="" style="endArrow=none;html=1;rounded=0;entryX=1.006;entryY=0.732;entryDx=0;entryDy=0;entryPerimeter=0;" parent="1" source="wqHerE7pvqFSdkicVR1H-37" target="wqHerE7pvqFSdkicVR1H-62" edge="1">
          <mxGeometry width="50" height="50" relative="1" as="geometry">
            <mxPoint x="910" y="1304" as="sourcePoint" />
            <mxPoint x="951" y="1410" as="targetPoint" />
          </mxGeometry>
        </mxCell>
      </root>
    </mxGraphModel>
  </diagram>
  <diagram name="Copy of Page-1" id="cnGGRe10kza4vwLhUm18">
    <mxGraphModel dx="2420" dy="729" grid="1" gridSize="10" guides="1" tooltips="1" connect="1" arrows="1" fold="1" page="1" pageScale="1" pageWidth="850" pageHeight="1100" math="0" shadow="0">
      <root>
        <mxCell id="YmbNdagMqRW-2g8Ot8Mk-0" />
        <mxCell id="YmbNdagMqRW-2g8Ot8Mk-1" parent="YmbNdagMqRW-2g8Ot8Mk-0" />
        <object label="&lt;b&gt;User&lt;/b&gt;" id="YmbNdagMqRW-2g8Ot8Mk-2">
          <mxCell style="shape=umlActor;verticalLabelPosition=bottom;verticalAlign=top;html=1;outlineConnect=0;movable=1;resizable=1;rotatable=1;deletable=1;editable=1;locked=0;connectable=1;" vertex="1" parent="YmbNdagMqRW-2g8Ot8Mk-1">
            <mxGeometry x="-30" y="410" width="30" height="60" as="geometry" />
          </mxCell>
        </object>
        <mxCell id="YmbNdagMqRW-2g8Ot8Mk-3" value="&lt;font style=&quot;font-size: 11px;&quot;&gt;OrderIngredientsScreen&amp;nbsp;&amp;nbsp;&lt;/font&gt;" style="shape=umlBoundary;whiteSpace=wrap;html=1;" vertex="1" parent="YmbNdagMqRW-2g8Ot8Mk-1">
          <mxGeometry x="345" y="240" width="160" height="80" as="geometry" />
        </mxCell>
        <mxCell id="YmbNdagMqRW-2g8Ot8Mk-4" value="click to Order ingredients&lt;br&gt;/Places order" style="text;html=1;align=center;verticalAlign=middle;whiteSpace=wrap;rounded=0;" vertex="1" parent="YmbNdagMqRW-2g8Ot8Mk-1">
          <mxGeometry x="250" y="285" width="60" height="45" as="geometry" />
        </mxCell>
        <mxCell id="YmbNdagMqRW-2g8Ot8Mk-5" value="Available&lt;br&gt;quantity" style="ellipse;shape=umlControl;whiteSpace=wrap;html=1;" vertex="1" parent="YmbNdagMqRW-2g8Ot8Mk-1">
          <mxGeometry x="605" y="60" width="110" height="80" as="geometry" />
        </mxCell>
        <mxCell id="YmbNdagMqRW-2g8Ot8Mk-6" value="Available&lt;br&gt;producers" style="ellipse;shape=umlControl;whiteSpace=wrap;html=1;" vertex="1" parent="YmbNdagMqRW-2g8Ot8Mk-1">
          <mxGeometry x="600" y="170" width="120" height="80" as="geometry" />
        </mxCell>
        <mxCell id="YmbNdagMqRW-2g8Ot8Mk-7" value="Available&lt;br&gt;ingredients" style="ellipse;shape=umlControl;whiteSpace=wrap;html=1;" vertex="1" parent="YmbNdagMqRW-2g8Ot8Mk-1">
          <mxGeometry x="595" y="260" width="130" height="80" as="geometry" />
        </mxCell>
        <mxCell id="YmbNdagMqRW-2g8Ot8Mk-8" value="" style="endArrow=none;html=1;rounded=0;exitX=1.019;exitY=0.513;exitDx=0;exitDy=0;exitPerimeter=0;entryX=-0.014;entryY=0.513;entryDx=0;entryDy=0;entryPerimeter=0;" edge="1" parent="YmbNdagMqRW-2g8Ot8Mk-1" source="YmbNdagMqRW-2g8Ot8Mk-3" target="YmbNdagMqRW-2g8Ot8Mk-6">
          <mxGeometry width="50" height="50" relative="1" as="geometry">
            <mxPoint x="200" y="420" as="sourcePoint" />
            <mxPoint x="340" y="300" as="targetPoint" />
          </mxGeometry>
        </mxCell>
        <mxCell id="YmbNdagMqRW-2g8Ot8Mk-9" value="" style="endArrow=none;html=1;rounded=0;exitX=0.888;exitY=0.1;exitDx=0;exitDy=0;exitPerimeter=0;entryX=-0.043;entryY=0.663;entryDx=0;entryDy=0;entryPerimeter=0;" edge="1" parent="YmbNdagMqRW-2g8Ot8Mk-1" source="YmbNdagMqRW-2g8Ot8Mk-3" target="YmbNdagMqRW-2g8Ot8Mk-5">
          <mxGeometry width="50" height="50" relative="1" as="geometry">
            <mxPoint x="210" y="430" as="sourcePoint" />
            <mxPoint x="350" y="310" as="targetPoint" />
          </mxGeometry>
        </mxCell>
        <mxCell id="YmbNdagMqRW-2g8Ot8Mk-10" value="Selected&lt;br&gt;Producer&lt;div&gt;&lt;br/&gt;&lt;/div&gt;" style="ellipse;shape=umlEntity;whiteSpace=wrap;html=1;" vertex="1" parent="YmbNdagMqRW-2g8Ot8Mk-1">
          <mxGeometry x="820" y="180" width="80" height="70" as="geometry" />
        </mxCell>
        <mxCell id="YmbNdagMqRW-2g8Ot8Mk-11" value="" style="endArrow=none;html=1;rounded=0;exitX=1;exitY=0.563;exitDx=0;exitDy=0;exitPerimeter=0;entryX=0;entryY=0.5;entryDx=0;entryDy=0;" edge="1" parent="YmbNdagMqRW-2g8Ot8Mk-1" source="YmbNdagMqRW-2g8Ot8Mk-6" target="YmbNdagMqRW-2g8Ot8Mk-10">
          <mxGeometry width="50" height="50" relative="1" as="geometry">
            <mxPoint x="730" y="340" as="sourcePoint" />
            <mxPoint x="835" y="390" as="targetPoint" />
          </mxGeometry>
        </mxCell>
        <mxCell id="YmbNdagMqRW-2g8Ot8Mk-12" value="Selected&lt;br&gt;Ingredients" style="ellipse;shape=umlEntity;whiteSpace=wrap;html=1;" vertex="1" parent="YmbNdagMqRW-2g8Ot8Mk-1">
          <mxGeometry x="830" y="280" width="80" height="70" as="geometry" />
        </mxCell>
        <mxCell id="YmbNdagMqRW-2g8Ot8Mk-13" value="" style="endArrow=none;html=1;rounded=0;exitX=1.023;exitY=0.575;exitDx=0;exitDy=0;exitPerimeter=0;entryX=0.038;entryY=0.313;entryDx=0;entryDy=0;entryPerimeter=0;" edge="1" parent="YmbNdagMqRW-2g8Ot8Mk-1" source="YmbNdagMqRW-2g8Ot8Mk-7" target="YmbNdagMqRW-2g8Ot8Mk-12">
          <mxGeometry width="50" height="50" relative="1" as="geometry">
            <mxPoint x="720" y="470" as="sourcePoint" />
            <mxPoint x="820" y="485" as="targetPoint" />
          </mxGeometry>
        </mxCell>
        <mxCell id="YmbNdagMqRW-2g8Ot8Mk-16" value="" style="endArrow=none;html=1;rounded=0;exitX=0.95;exitY=0.763;exitDx=0;exitDy=0;exitPerimeter=0;entryX=0.092;entryY=0.315;entryDx=0;entryDy=0;entryPerimeter=0;" edge="1" parent="YmbNdagMqRW-2g8Ot8Mk-1" source="YmbNdagMqRW-2g8Ot8Mk-3" target="YmbNdagMqRW-2g8Ot8Mk-7">
          <mxGeometry width="50" height="50" relative="1" as="geometry">
            <mxPoint x="470" y="329" as="sourcePoint" />
            <mxPoint x="619" y="477" as="targetPoint" />
          </mxGeometry>
        </mxCell>
        <mxCell id="YmbNdagMqRW-2g8Ot8Mk-18" value="Assigned&lt;br&gt;quantity" style="ellipse;shape=umlEntity;whiteSpace=wrap;html=1;" vertex="1" parent="YmbNdagMqRW-2g8Ot8Mk-1">
          <mxGeometry x="820" y="60" width="80" height="80" as="geometry" />
        </mxCell>
        <mxCell id="YmbNdagMqRW-2g8Ot8Mk-19" value="" style="endArrow=none;html=1;rounded=0;exitX=1;exitY=0.563;exitDx=0;exitDy=0;exitPerimeter=0;entryX=-0.017;entryY=0.596;entryDx=0;entryDy=0;entryPerimeter=0;" edge="1" parent="YmbNdagMqRW-2g8Ot8Mk-1" target="YmbNdagMqRW-2g8Ot8Mk-18">
          <mxGeometry width="50" height="50" relative="1" as="geometry">
            <mxPoint x="715" y="100" as="sourcePoint" />
            <mxPoint x="815" y="115" as="targetPoint" />
          </mxGeometry>
        </mxCell>
        <mxCell id="YmbNdagMqRW-2g8Ot8Mk-20" value="Order" style="ellipse;shape=umlEntity;whiteSpace=wrap;html=1;" vertex="1" parent="YmbNdagMqRW-2g8Ot8Mk-1">
          <mxGeometry x="740" y="640" width="80" height="80" as="geometry" />
        </mxCell>
        <mxCell id="YmbNdagMqRW-2g8Ot8Mk-21" value="" style="endArrow=none;html=1;rounded=0;entryX=0.046;entryY=0.304;entryDx=0;entryDy=0;entryPerimeter=0;exitX=0.977;exitY=0.563;exitDx=0;exitDy=0;exitPerimeter=0;" edge="1" parent="YmbNdagMqRW-2g8Ot8Mk-1" target="YmbNdagMqRW-2g8Ot8Mk-20" source="iKPfhJr8W228daK-A-PZ-17">
          <mxGeometry width="50" height="50" relative="1" as="geometry">
            <mxPoint x="640" y="650" as="sourcePoint" />
            <mxPoint x="780" y="649" as="targetPoint" />
          </mxGeometry>
        </mxCell>
        <mxCell id="YmbNdagMqRW-2g8Ot8Mk-23" style="edgeStyle=orthogonalEdgeStyle;rounded=0;orthogonalLoop=1;jettySize=auto;html=1;entryX=0.315;entryY=0.125;entryDx=0;entryDy=0;entryPerimeter=0;" edge="1" parent="YmbNdagMqRW-2g8Ot8Mk-1" source="YmbNdagMqRW-2g8Ot8Mk-3" target="iKPfhJr8W228daK-A-PZ-17">
          <mxGeometry relative="1" as="geometry">
            <mxPoint x="424.9899999999998" y="410" as="targetPoint" />
          </mxGeometry>
        </mxCell>
        <mxCell id="YmbNdagMqRW-2g8Ot8Mk-24" value="&lt;font style=&quot;font-size: 11px;&quot;&gt;LogFishScreen&amp;nbsp;&amp;nbsp;&lt;/font&gt;" style="shape=umlBoundary;whiteSpace=wrap;html=1;" vertex="1" parent="YmbNdagMqRW-2g8Ot8Mk-1">
          <mxGeometry x="354" y="690" width="160" height="80" as="geometry" />
        </mxCell>
        <mxCell id="YmbNdagMqRW-2g8Ot8Mk-25" value="click to Logs Fish" style="text;html=1;align=center;verticalAlign=middle;whiteSpace=wrap;rounded=0;" vertex="1" parent="YmbNdagMqRW-2g8Ot8Mk-1">
          <mxGeometry x="230" y="600" width="50" height="30" as="geometry" />
        </mxCell>
        <mxCell id="YmbNdagMqRW-2g8Ot8Mk-26" value="Fish&lt;br&gt;name-List" style="ellipse;shape=umlControl;whiteSpace=wrap;html=1;" vertex="1" parent="YmbNdagMqRW-2g8Ot8Mk-1">
          <mxGeometry x="660" y="840" width="120" height="80" as="geometry" />
        </mxCell>
        <mxCell id="YmbNdagMqRW-2g8Ot8Mk-27" value="Save-Date" style="ellipse;shape=umlControl;whiteSpace=wrap;html=1;" vertex="1" parent="YmbNdagMqRW-2g8Ot8Mk-1">
          <mxGeometry x="660" y="950" width="120" height="80" as="geometry" />
        </mxCell>
        <mxCell id="YmbNdagMqRW-2g8Ot8Mk-28" value="Name of&amp;nbsp;&lt;br&gt;caught-fish" style="ellipse;shape=umlEntity;whiteSpace=wrap;html=1;" vertex="1" parent="YmbNdagMqRW-2g8Ot8Mk-1">
          <mxGeometry x="980" y="850" width="80" height="80" as="geometry" />
        </mxCell>
        <mxCell id="YmbNdagMqRW-2g8Ot8Mk-29" value="" style="endArrow=none;html=1;rounded=0;exitX=1;exitY=0.563;exitDx=0;exitDy=0;exitPerimeter=0;entryX=0;entryY=0.5;entryDx=0;entryDy=0;" edge="1" parent="YmbNdagMqRW-2g8Ot8Mk-1" source="YmbNdagMqRW-2g8Ot8Mk-26" target="YmbNdagMqRW-2g8Ot8Mk-28">
          <mxGeometry width="50" height="50" relative="1" as="geometry">
            <mxPoint x="735" y="930" as="sourcePoint" />
            <mxPoint x="840" y="980" as="targetPoint" />
          </mxGeometry>
        </mxCell>
        <mxCell id="YmbNdagMqRW-2g8Ot8Mk-30" value="&amp;nbsp;Date caught" style="ellipse;shape=umlEntity;whiteSpace=wrap;html=1;" vertex="1" parent="YmbNdagMqRW-2g8Ot8Mk-1">
          <mxGeometry x="980" y="1000" width="80" height="80" as="geometry" />
        </mxCell>
        <mxCell id="YmbNdagMqRW-2g8Ot8Mk-31" value="" style="endArrow=none;html=1;rounded=0;exitX=1.023;exitY=0.575;exitDx=0;exitDy=0;exitPerimeter=0;entryX=0.038;entryY=0.313;entryDx=0;entryDy=0;entryPerimeter=0;" edge="1" parent="YmbNdagMqRW-2g8Ot8Mk-1" source="YmbNdagMqRW-2g8Ot8Mk-27" target="YmbNdagMqRW-2g8Ot8Mk-30">
          <mxGeometry width="50" height="50" relative="1" as="geometry">
            <mxPoint x="735" y="1060" as="sourcePoint" />
            <mxPoint x="835" y="1075" as="targetPoint" />
          </mxGeometry>
        </mxCell>
        <mxCell id="YmbNdagMqRW-2g8Ot8Mk-32" value="Enter quantity" style="ellipse;shape=umlControl;whiteSpace=wrap;html=1;" vertex="1" parent="YmbNdagMqRW-2g8Ot8Mk-1">
          <mxGeometry x="635" y="730" width="110" height="80" as="geometry" />
        </mxCell>
        <mxCell id="YmbNdagMqRW-2g8Ot8Mk-33" value="Quantity&lt;br&gt;caught" style="ellipse;shape=umlEntity;whiteSpace=wrap;html=1;" vertex="1" parent="YmbNdagMqRW-2g8Ot8Mk-1">
          <mxGeometry x="980" y="730" width="80" height="80" as="geometry" />
        </mxCell>
        <mxCell id="YmbNdagMqRW-2g8Ot8Mk-34" value="" style="endArrow=none;html=1;rounded=0;exitX=1;exitY=0.563;exitDx=0;exitDy=0;exitPerimeter=0;entryX=-0.017;entryY=0.596;entryDx=0;entryDy=0;entryPerimeter=0;" edge="1" parent="YmbNdagMqRW-2g8Ot8Mk-1" target="YmbNdagMqRW-2g8Ot8Mk-33">
          <mxGeometry width="50" height="50" relative="1" as="geometry">
            <mxPoint x="740" y="770" as="sourcePoint" />
            <mxPoint x="840" y="785" as="targetPoint" />
          </mxGeometry>
        </mxCell>
        <mxCell id="YmbNdagMqRW-2g8Ot8Mk-35" value="" style="endArrow=none;html=1;rounded=0;exitX=1;exitY=0.563;exitDx=0;exitDy=0;exitPerimeter=0;entryX=0;entryY=0.413;entryDx=0;entryDy=0;entryPerimeter=0;" edge="1" parent="YmbNdagMqRW-2g8Ot8Mk-1" target="YmbNdagMqRW-2g8Ot8Mk-32">
          <mxGeometry width="50" height="50" relative="1" as="geometry">
            <mxPoint x="516" y="730" as="sourcePoint" />
            <mxPoint x="620" y="738" as="targetPoint" />
          </mxGeometry>
        </mxCell>
        <mxCell id="YmbNdagMqRW-2g8Ot8Mk-36" value="" style="endArrow=none;html=1;rounded=0;exitX=0.913;exitY=0.875;exitDx=0;exitDy=0;exitPerimeter=0;entryX=0;entryY=0.5;entryDx=0;entryDy=0;entryPerimeter=0;" edge="1" parent="YmbNdagMqRW-2g8Ot8Mk-1" source="YmbNdagMqRW-2g8Ot8Mk-24" target="YmbNdagMqRW-2g8Ot8Mk-26">
          <mxGeometry width="50" height="50" relative="1" as="geometry">
            <mxPoint x="480" y="770" as="sourcePoint" />
            <mxPoint x="610" y="910" as="targetPoint" />
          </mxGeometry>
        </mxCell>
        <mxCell id="YmbNdagMqRW-2g8Ot8Mk-37" value="Types of fish list" style="ellipse;shape=umlControl;whiteSpace=wrap;html=1;" vertex="1" parent="YmbNdagMqRW-2g8Ot8Mk-1">
          <mxGeometry x="662.5" y="1060" width="115" height="80" as="geometry" />
        </mxCell>
        <mxCell id="YmbNdagMqRW-2g8Ot8Mk-38" value="Type caught" style="ellipse;shape=umlEntity;whiteSpace=wrap;html=1;" vertex="1" parent="YmbNdagMqRW-2g8Ot8Mk-1">
          <mxGeometry x="980" y="1120" width="80" height="80" as="geometry" />
        </mxCell>
        <mxCell id="YmbNdagMqRW-2g8Ot8Mk-39" value="" style="endArrow=none;html=1;rounded=0;exitX=1.023;exitY=0.575;exitDx=0;exitDy=0;exitPerimeter=0;entryX=0.038;entryY=0.313;entryDx=0;entryDy=0;entryPerimeter=0;" edge="1" parent="YmbNdagMqRW-2g8Ot8Mk-1" source="YmbNdagMqRW-2g8Ot8Mk-37" target="YmbNdagMqRW-2g8Ot8Mk-38">
          <mxGeometry width="50" height="50" relative="1" as="geometry">
            <mxPoint x="730" y="1200" as="sourcePoint" />
            <mxPoint x="830" y="1215" as="targetPoint" />
          </mxGeometry>
        </mxCell>
        <mxCell id="YmbNdagMqRW-2g8Ot8Mk-41" value="" style="endArrow=none;html=1;rounded=0;exitX=0.781;exitY=0.975;exitDx=0;exitDy=0;exitPerimeter=0;entryX=-0.035;entryY=0.505;entryDx=0;entryDy=0;entryPerimeter=0;" edge="1" parent="YmbNdagMqRW-2g8Ot8Mk-1" source="YmbNdagMqRW-2g8Ot8Mk-24" target="YmbNdagMqRW-2g8Ot8Mk-27">
          <mxGeometry width="50" height="50" relative="1" as="geometry">
            <mxPoint x="480" y="910" as="sourcePoint" />
            <mxPoint x="620" y="1070" as="targetPoint" />
          </mxGeometry>
        </mxCell>
        <mxCell id="YmbNdagMqRW-2g8Ot8Mk-42" value="" style="endArrow=none;html=1;rounded=0;exitX=0.688;exitY=1.025;exitDx=0;exitDy=0;exitPerimeter=0;entryX=0;entryY=0.463;entryDx=0;entryDy=0;entryPerimeter=0;" edge="1" parent="YmbNdagMqRW-2g8Ot8Mk-1" source="YmbNdagMqRW-2g8Ot8Mk-24" target="YmbNdagMqRW-2g8Ot8Mk-37">
          <mxGeometry width="50" height="50" relative="1" as="geometry">
            <mxPoint x="480" y="1050" as="sourcePoint" />
            <mxPoint x="620" y="1210" as="targetPoint" />
          </mxGeometry>
        </mxCell>
        <mxCell id="YmbNdagMqRW-2g8Ot8Mk-46" style="edgeStyle=orthogonalEdgeStyle;rounded=0;orthogonalLoop=1;jettySize=auto;html=1;exitX=1;exitY=0.6;exitDx=0;exitDy=0;exitPerimeter=0;" edge="1" parent="YmbNdagMqRW-2g8Ot8Mk-1" source="YmbNdagMqRW-2g8Ot8Mk-48" target="iKPfhJr8W228daK-A-PZ-15">
          <mxGeometry relative="1" as="geometry">
            <mxPoint x="340" y="1310" as="sourcePoint" />
            <mxPoint x="660" y="1420" as="targetPoint" />
          </mxGeometry>
        </mxCell>
        <mxCell id="YmbNdagMqRW-2g8Ot8Mk-48" value="Finish loging" style="ellipse;shape=umlControl;whiteSpace=wrap;html=1;" vertex="1" parent="YmbNdagMqRW-2g8Ot8Mk-1">
          <mxGeometry x="514" y="1130" width="130" height="80" as="geometry" />
        </mxCell>
        <mxCell id="YmbNdagMqRW-2g8Ot8Mk-49" style="edgeStyle=orthogonalEdgeStyle;rounded=0;orthogonalLoop=1;jettySize=auto;html=1;entryX=0.262;entryY=0.188;entryDx=0;entryDy=0;entryPerimeter=0;exitX=0.663;exitY=1.05;exitDx=0;exitDy=0;exitPerimeter=0;" edge="1" parent="YmbNdagMqRW-2g8Ot8Mk-1" source="YmbNdagMqRW-2g8Ot8Mk-24" target="YmbNdagMqRW-2g8Ot8Mk-48">
          <mxGeometry relative="1" as="geometry" />
        </mxCell>
        <mxCell id="YmbNdagMqRW-2g8Ot8Mk-50" value="Calculates if Fish--weight illegal" style="ellipse;shape=umlControl;whiteSpace=wrap;html=1;" vertex="1" parent="YmbNdagMqRW-2g8Ot8Mk-1">
          <mxGeometry x="360" y="1300" width="130" height="80" as="geometry" />
        </mxCell>
        <mxCell id="YmbNdagMqRW-2g8Ot8Mk-51" value="Legal&lt;br&gt;weight" style="ellipse;shape=umlEntity;whiteSpace=wrap;html=1;" vertex="1" parent="YmbNdagMqRW-2g8Ot8Mk-1">
          <mxGeometry x="514" y="1406.2" width="80" height="80" as="geometry" />
        </mxCell>
        <mxCell id="YmbNdagMqRW-2g8Ot8Mk-52" value="" style="endArrow=none;html=1;rounded=0;entryX=0.038;entryY=0.313;entryDx=0;entryDy=0;entryPerimeter=0;exitX=0.723;exitY=0.975;exitDx=0;exitDy=0;exitPerimeter=0;" edge="1" parent="YmbNdagMqRW-2g8Ot8Mk-1" source="YmbNdagMqRW-2g8Ot8Mk-50" target="YmbNdagMqRW-2g8Ot8Mk-51">
          <mxGeometry width="50" height="50" relative="1" as="geometry">
            <mxPoint x="519.04" y="1363.8" as="sourcePoint" />
            <mxPoint x="451.5" y="1081.2" as="targetPoint" />
          </mxGeometry>
        </mxCell>
        <mxCell id="YmbNdagMqRW-2g8Ot8Mk-53" value="" style="endArrow=none;html=1;rounded=0;exitX=0.688;exitY=1.025;exitDx=0;exitDy=0;exitPerimeter=0;entryX=0.402;entryY=0.113;entryDx=0;entryDy=0;entryPerimeter=0;" edge="1" parent="YmbNdagMqRW-2g8Ot8Mk-1" target="YmbNdagMqRW-2g8Ot8Mk-50">
          <mxGeometry width="50" height="50" relative="1" as="geometry">
            <mxPoint x="410" y="765" as="sourcePoint" />
            <mxPoint x="576" y="1200" as="targetPoint" />
          </mxGeometry>
        </mxCell>
        <mxCell id="YmbNdagMqRW-2g8Ot8Mk-56" style="edgeStyle=orthogonalEdgeStyle;rounded=0;orthogonalLoop=1;jettySize=auto;html=1;fillColor=#FF3333;strokeColor=#FF0000;entryX=0.523;entryY=0.088;entryDx=0;entryDy=0;entryPerimeter=0;exitX=0.462;exitY=1;exitDx=0;exitDy=0;exitPerimeter=0;" edge="1" parent="YmbNdagMqRW-2g8Ot8Mk-1" source="YmbNdagMqRW-2g8Ot8Mk-50" target="iKPfhJr8W228daK-A-PZ-7">
          <mxGeometry relative="1" as="geometry">
            <mxPoint x="190" y="1540" as="targetPoint" />
          </mxGeometry>
        </mxCell>
        <mxCell id="YmbNdagMqRW-2g8Ot8Mk-57" value="" style="endArrow=block;dashed=1;endFill=0;endSize=12;html=1;rounded=0;entryX=-0.003;entryY=0.606;entryDx=0;entryDy=0;entryPerimeter=0;exitX=0.75;exitY=0;exitDx=0;exitDy=0;exitPerimeter=0;" edge="1" parent="YmbNdagMqRW-2g8Ot8Mk-1" target="YmbNdagMqRW-2g8Ot8Mk-3" source="iKPfhJr8W228daK-A-PZ-12">
          <mxGeometry width="160" relative="1" as="geometry">
            <mxPoint x="230" y="370" as="sourcePoint" />
            <mxPoint x="345" y="400" as="targetPoint" />
          </mxGeometry>
        </mxCell>
        <mxCell id="YmbNdagMqRW-2g8Ot8Mk-59" value="" style="endArrow=block;dashed=1;endFill=0;endSize=12;html=1;rounded=0;entryX=-0.007;entryY=0.283;entryDx=0;entryDy=0;entryPerimeter=0;exitX=0.625;exitY=1.038;exitDx=0;exitDy=0;exitPerimeter=0;" edge="1" parent="YmbNdagMqRW-2g8Ot8Mk-1" source="iKPfhJr8W228daK-A-PZ-12" target="YmbNdagMqRW-2g8Ot8Mk-24">
          <mxGeometry width="160" relative="1" as="geometry">
            <mxPoint x="260" y="560" as="sourcePoint" />
            <mxPoint x="365" y="308" as="targetPoint" />
          </mxGeometry>
        </mxCell>
        <mxCell id="iKPfhJr8W228daK-A-PZ-0" value="Cancel Order" style="ellipse;shape=umlControl;whiteSpace=wrap;html=1;fillColor=#FF0000;" vertex="1" parent="YmbNdagMqRW-2g8Ot8Mk-1">
          <mxGeometry x="595" y="430" width="130" height="80" as="geometry" />
        </mxCell>
        <mxCell id="iKPfhJr8W228daK-A-PZ-1" value="" style="endArrow=none;html=1;rounded=0;exitX=0.669;exitY=1.038;exitDx=0;exitDy=0;exitPerimeter=0;entryX=0.208;entryY=0.188;entryDx=0;entryDy=0;entryPerimeter=0;strokeColor=#FF0000;" edge="1" parent="YmbNdagMqRW-2g8Ot8Mk-1" source="YmbNdagMqRW-2g8Ot8Mk-3" target="iKPfhJr8W228daK-A-PZ-0">
          <mxGeometry width="50" height="50" relative="1" as="geometry">
            <mxPoint x="477" y="409" as="sourcePoint" />
            <mxPoint x="615" y="480" as="targetPoint" />
          </mxGeometry>
        </mxCell>
        <mxCell id="iKPfhJr8W228daK-A-PZ-3" value="" style="endArrow=none;html=1;rounded=0;exitX=0.969;exitY=0.488;exitDx=0;exitDy=0;exitPerimeter=0;entryX=-0.008;entryY=0.563;entryDx=0;entryDy=0;entryPerimeter=0;strokeColor=#FF0000;" edge="1" parent="YmbNdagMqRW-2g8Ot8Mk-1" source="iKPfhJr8W228daK-A-PZ-0" target="iKPfhJr8W228daK-A-PZ-19">
          <mxGeometry width="50" height="50" relative="1" as="geometry">
            <mxPoint x="730" y="413" as="sourcePoint" />
            <mxPoint x="878.96" y="437.03999999999996" as="targetPoint" />
          </mxGeometry>
        </mxCell>
        <mxCell id="iKPfhJr8W228daK-A-PZ-4" value="" style="endArrow=block;dashed=1;endFill=0;endSize=12;html=1;rounded=0;exitX=0.169;exitY=0.25;exitDx=0;exitDy=0;exitPerimeter=0;entryX=0.781;entryY=0.975;entryDx=0;entryDy=0;entryPerimeter=0;" edge="1" parent="YmbNdagMqRW-2g8Ot8Mk-1" source="iKPfhJr8W228daK-A-PZ-19" target="YmbNdagMqRW-2g8Ot8Mk-3">
          <mxGeometry width="160" relative="1" as="geometry">
            <mxPoint x="914.9699999999998" y="411.03999999999996" as="sourcePoint" />
            <mxPoint x="1160" y="290" as="targetPoint" />
          </mxGeometry>
        </mxCell>
        <mxCell id="iKPfhJr8W228daK-A-PZ-5" value="Redirect" style="text;html=1;align=center;verticalAlign=middle;whiteSpace=wrap;rounded=0;" vertex="1" parent="YmbNdagMqRW-2g8Ot8Mk-1">
          <mxGeometry x="685" y="370" width="60" height="30" as="geometry" />
        </mxCell>
        <mxCell id="iKPfhJr8W228daK-A-PZ-6" value="illegal weight of fish" style="text;html=1;align=center;verticalAlign=middle;whiteSpace=wrap;rounded=0;" vertex="1" parent="YmbNdagMqRW-2g8Ot8Mk-1">
          <mxGeometry x="260" y="1425" width="60" height="30" as="geometry" />
        </mxCell>
        <mxCell id="iKPfhJr8W228daK-A-PZ-7" value="illegal fish error" style="ellipse;shape=umlControl;whiteSpace=wrap;html=1;fillColor=#FF0000;" vertex="1" parent="YmbNdagMqRW-2g8Ot8Mk-1">
          <mxGeometry x="150" y="1550" width="130" height="80" as="geometry" />
        </mxCell>
        <mxCell id="iKPfhJr8W228daK-A-PZ-9" value="" style="endArrow=block;dashed=1;endFill=0;endSize=12;html=1;rounded=0;exitX=0;exitY=0.5;exitDx=0;exitDy=0;exitPerimeter=0;entryX=-0.012;entryY=0.6;entryDx=0;entryDy=0;entryPerimeter=0;" edge="1" parent="YmbNdagMqRW-2g8Ot8Mk-1" source="iKPfhJr8W228daK-A-PZ-7" target="YmbNdagMqRW-2g8Ot8Mk-24">
          <mxGeometry width="160" relative="1" as="geometry">
            <mxPoint x="130" y="910" as="sourcePoint" />
            <mxPoint x="120" y="1210" as="targetPoint" />
          </mxGeometry>
        </mxCell>
        <mxCell id="iKPfhJr8W228daK-A-PZ-10" value="Redirect" style="text;html=1;align=center;verticalAlign=middle;whiteSpace=wrap;rounded=0;" vertex="1" parent="YmbNdagMqRW-2g8Ot8Mk-1">
          <mxGeometry x="140" y="1300" width="60" height="30" as="geometry" />
        </mxCell>
        <mxCell id="iKPfhJr8W228daK-A-PZ-12" value="&lt;span style=&quot;font-size: 11px;&quot;&gt;Primary Screen&lt;/span&gt;" style="shape=umlBoundary;whiteSpace=wrap;html=1;" vertex="1" parent="YmbNdagMqRW-2g8Ot8Mk-1">
          <mxGeometry x="120" y="400" width="160" height="80" as="geometry" />
        </mxCell>
        <mxCell id="iKPfhJr8W228daK-A-PZ-13" style="edgeStyle=orthogonalEdgeStyle;rounded=0;orthogonalLoop=1;jettySize=auto;html=1;entryX=0.025;entryY=0.5;entryDx=0;entryDy=0;entryPerimeter=0;" edge="1" parent="YmbNdagMqRW-2g8Ot8Mk-1" source="YmbNdagMqRW-2g8Ot8Mk-2" target="iKPfhJr8W228daK-A-PZ-12">
          <mxGeometry relative="1" as="geometry" />
        </mxCell>
        <mxCell id="iKPfhJr8W228daK-A-PZ-14" value="Enters App" style="text;html=1;align=center;verticalAlign=middle;whiteSpace=wrap;rounded=0;" vertex="1" parent="YmbNdagMqRW-2g8Ot8Mk-1">
          <mxGeometry x="30" y="400" width="60" height="30" as="geometry" />
        </mxCell>
        <mxCell id="iKPfhJr8W228daK-A-PZ-15" value="Show full Log&lt;br&gt;info" style="ellipse;shape=umlControl;whiteSpace=wrap;html=1;" vertex="1" parent="YmbNdagMqRW-2g8Ot8Mk-1">
          <mxGeometry x="770" y="1380" width="130" height="80" as="geometry" />
        </mxCell>
        <mxCell id="iKPfhJr8W228daK-A-PZ-17" value="Saves order" style="ellipse;shape=umlControl;whiteSpace=wrap;html=1;" vertex="1" parent="YmbNdagMqRW-2g8Ot8Mk-1">
          <mxGeometry x="384" y="500" width="130" height="80" as="geometry" />
        </mxCell>
        <mxCell id="iKPfhJr8W228daK-A-PZ-19" value="Order Canceled&lt;br&gt;Sucessfully" style="ellipse;shape=umlControl;whiteSpace=wrap;html=1;fillColor=#FF0000;" vertex="1" parent="YmbNdagMqRW-2g8Ot8Mk-1">
          <mxGeometry x="890" y="400" width="130" height="80" as="geometry" />
        </mxCell>
        <mxCell id="iKPfhJr8W228daK-A-PZ-20" value="Log" style="ellipse;shape=umlEntity;whiteSpace=wrap;html=1;" vertex="1" parent="YmbNdagMqRW-2g8Ot8Mk-1">
          <mxGeometry x="980" y="1406.2" width="80" height="80" as="geometry" />
        </mxCell>
        <mxCell id="iKPfhJr8W228daK-A-PZ-21" value="" style="endArrow=none;html=1;rounded=0;exitX=0.944;exitY=0.394;exitDx=0;exitDy=0;exitPerimeter=0;entryX=-0.029;entryY=0.379;entryDx=0;entryDy=0;entryPerimeter=0;" edge="1" parent="YmbNdagMqRW-2g8Ot8Mk-1" source="iKPfhJr8W228daK-A-PZ-15" target="iKPfhJr8W228daK-A-PZ-20">
          <mxGeometry width="50" height="50" relative="1" as="geometry">
            <mxPoint x="857" y="1310" as="sourcePoint" />
            <mxPoint x="1060" y="1349" as="targetPoint" />
          </mxGeometry>
        </mxCell>
      </root>
    </mxGraphModel>
  </diagram>
</mxfile>
